<svg width="13" height="20" viewBox="0 0 13 20" fill="none" xmlns="http://www.w3.org/2000/svg">
<path d="M4.42465 10.0042L12.2319 2.52195C12.4469 2.31642 12.5651 2.04163 12.5651 1.74862C12.5651 1.45545 12.4469 1.18081 12.2319 0.974959L11.5478 0.319675C11.3332 0.113496 11.0462 0 10.7405 0C10.4347 0 10.1482 0.113496 9.93337 0.319675L0.637587 9.22797C0.421935 9.43447 0.303844 9.71041 0.304692 10.0037C0.303844 10.2984 0.421765 10.574 0.637587 10.7807L9.92471 19.6803C10.1395 19.8865 10.4261 20 10.732 20C11.0378 20 11.3243 19.8865 11.5393 19.6803L12.2232 19.025C12.6683 18.5985 12.6683 17.9042 12.2232 17.4779L4.42465 10.0042Z" fill="#424242" fill-opacity="0.7"/>
</svg>
