<svg width="14" height="9" viewBox="0 0 14 9" fill="none" xmlns="http://www.w3.org/2000/svg">
<path d="M5 7.5C5 7.36739 5.05268 7.24021 5.14645 7.14645C5.24021 7.05268 5.36739 7 5.5 7H8.5C8.63261 7 8.75979 7.05268 8.85355 7.14645C8.94732 7.24021 9 7.36739 9 7.5C9 7.63261 8.94732 7.75979 8.85355 7.85355C8.75979 7.94732 8.63261 8 8.5 8H5.5C5.36739 8 5.24021 7.94732 5.14645 7.85355C5.05268 7.75979 5 7.63261 5 7.5ZM3 4.5C3 4.36739 3.05268 4.24021 3.14645 4.14645C3.24021 4.05268 3.36739 4 3.5 4H10.5C10.6326 4 10.7598 4.05268 10.8536 4.14645C10.9473 4.24021 11 4.36739 11 4.5C11 4.63261 10.9473 4.75979 10.8536 4.85355C10.7598 4.94732 10.6326 5 10.5 5H3.5C3.36739 5 3.24021 4.94732 3.14645 4.85355C3.05268 4.75979 3 4.63261 3 4.5ZM1 1.5C1 1.36739 1.05268 1.24021 1.14645 1.14645C1.24021 1.05268 1.36739 1 1.5 1H12.5C12.6326 1 12.7598 1.05268 12.8536 1.14645C12.9473 1.24021 13 1.36739 13 1.5C13 1.63261 12.9473 1.75979 12.8536 1.85355C12.7598 1.94732 12.6326 2 12.5 2H1.5C1.36739 2 1.24021 1.94732 1.14645 1.85355C1.05268 1.75979 1 1.63261 1 1.5Z" stroke="#111111" stroke-opacity="0.2" stroke-linecap="round" stroke-linejoin="round"/>
</svg>
