<svg width="107" height="37" viewBox="0 0 107 37" fill="none" xmlns="http://www.w3.org/2000/svg">
<path d="M92.7063 9.55167C92.9777 9.55167 93.238 9.44385 93.4299 9.25192C93.6218 9.06 93.7296 8.7997 93.7296 8.52828C93.7296 8.25686 93.6218 7.99655 93.4299 7.80463C93.238 7.6127 92.9777 7.50488 92.7063 7.50488C92.4348 7.50488 92.1745 7.6127 91.9826 7.80463C91.7907 7.99655 91.6829 8.25686 91.6829 8.52828C91.6829 8.7997 91.7907 9.06 91.9826 9.25192C92.1745 9.44385 92.4348 9.55167 92.7063 9.55167Z" fill="#091638"/>
<path d="M101.235 9.21056L100.304 6.7299L97.8232 5.79925L100.304 4.8686L101.235 2.38794L102.165 4.8686L104.646 5.79925L102.165 6.7299L101.235 9.21056Z" fill="#091638"/>
<path d="M99.0171 3.07018L98.606 1.94625L97.4821 1.53509L98.606 1.12393L99.0171 0L99.4283 1.12393L100.552 1.53509L99.4283 1.94625L99.0171 3.07018Z" fill="#091638"/>
<path d="M104.646 4.43482L104.077 3.07975L102.599 2.55859L104.077 2.03744L104.646 0.682373L105.214 2.03744L106.693 2.55859L105.214 3.07975L104.646 4.43482Z" fill="#091638"/>
<path fill-rule="evenodd" clip-rule="evenodd" d="M94.5387 6.90051C94.1613 6.52306 93.6493 6.31101 93.1156 6.31101H81.0395C80.5057 6.31101 79.9938 6.52306 79.6163 6.90051C79.2389 7.27796 79.0268 7.78989 79.0268 8.32369V12.9631H77.0142V8.32369C77.0142 7.2561 77.4383 6.23224 78.1932 5.47734C78.9481 4.72244 79.9719 4.29834 81.0395 4.29834H93.1156C94.1831 4.29834 95.207 4.72244 95.9619 5.47734C96.7168 6.23224 97.1409 7.2561 97.1409 8.32369V32.4758C97.1409 33.5434 96.7168 34.5672 95.9619 35.3221C95.207 36.077 94.1831 36.5011 93.1156 36.5011H81.0395C79.9719 36.5011 78.9481 36.077 78.1932 35.3221C77.4383 34.5672 77.0142 33.5434 77.0142 32.4758V31.043H79.0268V32.4758C79.0268 33.0096 79.2389 33.5215 79.6163 33.899C79.9938 34.2764 80.5057 34.4885 81.0395 34.4885H93.1156C93.6493 34.4885 94.1613 34.2764 94.5387 33.899C94.9162 33.5215 95.1282 33.0096 95.1282 32.4758V8.32369C95.1282 7.78989 94.9162 7.27796 94.5387 6.90051Z" fill="#091638"/>
<path d="M7.83132 20.1857V22.5749H11.0612C10.7515 24.7208 9.35776 26.0039 7.38887 26.0039C4.99965 26.0039 3.22986 24.0571 3.22986 20.252C3.22986 16.7788 4.99965 14.6772 7.47736 14.6772C9.51262 14.6772 10.663 15.7833 11.0391 17.6637L11.0833 17.8849H14.1362L14.1141 17.6637C13.8044 14.6551 11.6585 12.3986 7.5216 12.3986C3.25199 12.3986 0 15.4294 0 20.429C0 25.2738 2.67681 28.2825 6.9243 28.2825C8.6056 28.2825 9.77808 27.8843 10.6409 27.0436L11.3266 25.495L11.5258 27.9727H13.9813V20.1857H7.83132Z" fill="#BF271C"/>
<path d="M21.8858 15.8939C17.9701 15.8939 15.78 18.5044 15.78 22.0882C15.78 25.6499 17.9701 28.2825 21.8858 28.2825C25.8014 28.2825 27.9915 25.6499 27.9915 22.0882C27.9915 18.5044 25.8014 15.8939 21.8858 15.8939ZM21.8858 26.1366C20.0496 26.1366 18.9435 24.6101 18.9435 22.0882C18.9435 19.5441 20.0496 18.0398 21.8858 18.0398C23.7219 18.0398 24.828 19.5441 24.828 22.0882C24.828 24.6101 23.7219 26.1366 21.8858 26.1366Z" fill="#BF271C"/>
<path d="M35.6336 12.3986C32.7134 12.3986 30.1694 14.0578 30.1694 16.8673C30.1694 19.6769 32.1383 20.7609 35.2575 21.513C37.514 22.0439 38.3104 22.7961 38.3104 24.0792C38.3104 25.2517 37.2043 26.0039 35.8106 26.0039C34.262 26.0039 32.9789 25.1411 32.6471 23.4598H29.5278C29.8154 26.6675 32.2046 28.2825 35.8548 28.2825C38.8635 28.2825 41.496 26.6454 41.496 23.7695C41.496 21.3139 39.9917 19.7653 36.6291 18.9911C34.1956 18.4159 33.3771 17.7743 33.3771 16.4912C33.3771 15.2524 34.3062 14.6772 35.523 14.6772C37.1158 14.6772 37.9786 15.6506 38.1555 17.1992H41.2748C40.943 14.4781 39.2838 12.3986 35.6336 12.3986Z" fill="#BF271C"/>
<path d="M54.1367 21.8448C54.1367 18.6371 52.2342 15.8939 48.6282 15.8939C45.0223 15.8939 42.6552 18.5265 42.6552 22.1324C42.6552 26.2693 45.155 28.2825 48.3849 28.2825C51.1502 28.2825 53.3624 26.8887 53.9597 24.1456H50.9068C50.7077 25.4065 49.7565 26.1366 48.4513 26.1366C47.0354 26.1366 45.9293 25.3623 45.7302 22.8846H54.0925C54.1367 22.4864 54.1367 22.1324 54.1367 21.8448ZM48.4955 18.0398C49.9556 18.0398 50.7962 19.0353 50.9953 20.8936H45.8187C46.0842 18.9468 47.0797 18.0398 48.4955 18.0398Z" fill="#BF271C"/>
<path d="M59.2055 11.7128H56.1526V24.1898C56.1526 24.9641 56.1526 25.5172 56.1968 26.0481C56.2632 27.5745 57.2145 28.1276 58.7188 28.1276C59.4046 28.1276 60.0019 28.1055 60.5992 28.0391V25.9375C59.5594 26.0038 59.294 25.8047 59.2276 25.2074C59.2055 24.8977 59.2055 24.588 59.2055 24.1234V11.7128Z" fill="#BF271C"/>
<path d="M72.8837 16.2921H65.7824V16.0267C65.7824 15.717 65.7824 15.2966 65.8266 14.9869C65.9594 13.7923 66.8885 13.372 69.8529 13.5711V11.4473C69.322 11.3588 68.8574 11.2925 68.1495 11.2925C64.3887 11.2925 62.9729 12.5756 62.7738 14.7657C62.7295 15.1639 62.7295 15.6948 62.7295 16.093V16.2921H61.4685V18.3053H62.7295V27.9727H65.7824V18.3053H69.8529V27.9727H72.8837V16.2921Z" fill="#BF271C"/>
<path d="M86.3913 21.8448C86.3913 18.6371 84.4888 15.8939 80.8828 15.8939C77.2769 15.8939 74.9098 18.5265 74.9098 22.1324C74.9098 26.2693 77.4096 28.2825 80.6395 28.2825C83.4048 28.2825 85.617 26.8887 86.2143 24.1456H83.1614C82.9623 25.4065 82.0111 26.1366 80.7058 26.1366C79.29 26.1366 78.1839 25.3623 77.9848 22.8846H86.347C86.3913 22.4864 86.3913 22.1324 86.3913 21.8448ZM80.7501 18.0398C82.2102 18.0398 83.0508 19.0353 83.2499 20.8936H78.0733C78.3387 18.9468 79.3343 18.0398 80.7501 18.0398Z" fill="#BF271C"/>
</svg>
