<svg width="36" height="36" viewBox="0 0 36 36" fill="none" xmlns="http://www.w3.org/2000/svg">
<path d="M27.645 4.9155C24.6178 2.6882 20.9125 1.57844 17.1593 1.77501C13.4062 1.97157 9.83702 3.46232 7.05904 5.99365C4.28107 8.52498 2.46584 11.9405 1.92217 15.6593C1.3785 19.3781 2.13996 23.1703 4.07701 26.391C15.2595 23.3415 24.3315 15.891 27.645 4.9155ZM18 34.26C20.9024 34.2633 23.7527 33.4897 26.2551 32.0194C28.7575 30.5491 30.8207 28.4358 32.2305 25.8988C33.6402 23.3618 34.3452 20.4937 34.2721 17.5923C34.1991 14.6908 33.3507 11.8618 31.815 9.399C32.4367 11.6429 32.357 14.0233 31.5867 16.2206C30.8164 18.4179 29.3922 20.327 27.5055 21.6915C22.578 25.3155 15.4155 25.3395 5.53201 28.4325C7.05612 30.2582 8.96296 31.7266 11.1175 32.7337C13.2721 33.7407 15.6217 34.2618 18 34.26ZM36 18C36 21.5601 34.9443 25.0402 32.9665 28.0003C30.9886 30.9603 28.1774 33.2674 24.8883 34.6298C21.5992 35.9922 17.98 36.3487 14.4884 35.6541C10.9967 34.9596 7.78943 33.2453 5.27208 30.7279C2.75474 28.2106 1.04041 25.0033 0.345873 21.5116C-0.348661 18.02 0.00779915 14.4008 1.37018 11.1117C2.73255 7.82263 5.03966 5.01141 7.99974 3.03355C10.9598 1.05568 14.4399 0 18 0C22.7739 0 27.3523 1.89642 30.7279 5.27208C34.1036 8.64773 36 13.2261 36 18Z" fill="white"/>
</svg>
