<svg width="76" height="76" viewBox="0 0 76 76" fill="none" xmlns="http://www.w3.org/2000/svg">
<path d="M38 0C16.9538 0 0 16.9538 0 38C0 59.0462 16.9538 76 38 76C59.0462 76 76 59.0462 76 38C76 33.9135 75.4505 29.8358 73.9889 26.0329L69.2418 30.6923C69.8265 33.0308 70.1568 35.3751 70.1568 38C70.1568 55.8366 55.8395 70.1538 38.0029 70.1538C20.1663 70.1538 5.84615 55.8366 5.84615 38C5.84615 20.1634 20.1634 5.84615 38 5.84615C46.7692 5.84615 54.6469 9.33923 60.1978 14.8902L64.3077 10.7803C57.5846 4.05138 48.2308 0 38 0ZM70.9752 12.5137L38 45.4918L25.4863 32.9752L21.2829 37.1786L35.8983 51.794L38 53.8022L40.1017 51.794L75.1786 16.7171L70.9752 12.5137Z" fill="#BF271C"/>
</svg>
