<svg width="15" height="8" viewBox="0 0 15 8" fill="none" xmlns="http://www.w3.org/2000/svg">
<path d="M7.02316 0.00240932C7.25681 0.00195301 7.48325 0.0833277 7.66316 0.232409L13.6632 5.23241C13.8674 5.40215 13.9958 5.64606 14.0202 5.91049C14.0446 6.17491 13.9629 6.43819 13.7932 6.64241C13.6234 6.84663 13.3795 6.97505 13.1151 6.99943C12.8507 7.02381 12.5874 6.94215 12.3832 6.77241L7.02316 2.29241L1.66316 6.61241C1.56087 6.69547 1.44318 6.75751 1.31684 6.79494C1.1905 6.83237 1.05801 6.84446 0.92698 6.83052C0.795952 6.81658 0.668969 6.77689 0.553332 6.71371C0.437696 6.65054 0.335684 6.56514 0.253161 6.46241C0.161582 6.35959 0.0922223 6.23896 0.04943 6.10809C0.00663766 5.97721 -0.00866498 5.83891 0.00447761 5.70185C0.0176202 5.56479 0.0589267 5.43191 0.12581 5.31156C0.192693 5.1912 0.283713 5.08595 0.393163 5.00241L6.39316 0.172409C6.57825 0.0468934 6.80006 -0.0129615 7.02316 0.00240932Z" fill="#BF271C"/>
</svg>
