<svg width="78" height="59" viewBox="0 0 78 59" fill="none" xmlns="http://www.w3.org/2000/svg">
<path d="M70.3462 59H6.80769C2.95 59 0 56.05 0 52.1923V6.80769C0 2.95 2.95 0 6.80769 0H70.3462C74.2038 0 77.1538 2.95 77.1538 6.80769V52.1923C77.1538 56.05 74.2038 59 70.3462 59ZM6.80769 4.53846C5.44615 4.53846 4.53846 5.44615 4.53846 6.80769V52.1923C4.53846 53.5538 5.44615 54.4615 6.80769 54.4615H70.3462C71.7077 54.4615 72.6154 53.5538 72.6154 52.1923V6.80769C72.6154 5.44615 71.7077 4.53846 70.3462 4.53846H6.80769Z" fill="#F17B73" fill-opacity="0.5"/>
<path d="M49.9226 27.2308C44.9303 27.2308 40.8457 23.1461 40.8457 18.1538C40.8457 13.1615 44.9303 9.0769 49.9226 9.0769C54.9149 9.0769 58.9995 13.1615 58.9995 18.1538C58.9995 23.1461 54.9149 27.2308 49.9226 27.2308ZM49.9226 13.6154C47.4265 13.6154 45.3842 15.6577 45.3842 18.1538C45.3842 20.65 47.4265 22.6923 49.9226 22.6923C52.4188 22.6923 54.4611 20.65 54.4611 18.1538C54.4611 15.6577 52.4188 13.6154 49.9226 13.6154Z" fill="#F17B73" fill-opacity="0.5"/>
<path d="M61.9519 58.3194L24.9634 23.6002L3.85954 43.1156L0.682617 39.9386L24.9634 17.2463L65.1288 55.1425L61.9519 58.3194Z" fill="#F17B73" fill-opacity="0.5"/>
<path d="M73.5209 46.973L61.267 36.9884L51.0555 45.3845L48.1055 41.7538L61.267 31.0884L76.2439 43.3422L73.5209 46.973Z" fill="#F17B73" fill-opacity="0.5"/>
</svg>
