<svg width="23" height="22" viewBox="0 0 23 22" fill="none" xmlns="http://www.w3.org/2000/svg">
<path d="M19.6247 3.19831C18.6161 2.18037 17.415 1.37334 16.0913 0.824247C14.7677 0.275158 13.348 -0.00501086 11.9151 6.78293e-05C5.91045 6.78293e-05 1.01684 4.8923 1.01134 10.8983C1.01134 12.8219 1.51459 14.6933 2.46471 16.3501L0.92334 22L6.70382 20.4848C8.30295 21.355 10.0945 21.8112 11.9151 21.8116H11.9206C17.9265 21.8116 22.8188 16.9194 22.8243 10.9079C22.8256 9.47522 22.5435 8.05643 21.9941 6.73325C21.4448 5.41008 20.639 4.2087 19.6233 3.19831H19.6247ZM11.9151 19.9664C10.2912 19.9669 8.69716 19.5299 7.30057 18.7014L6.97057 18.5034L3.54133 19.4026L4.45708 16.0573L4.24258 15.7121C3.33482 14.2688 2.85472 12.5978 2.85796 10.8928C2.85796 5.90705 6.92382 1.83981 11.9206 1.83981C13.1109 1.83768 14.29 2.07119 15.3897 2.52689C16.4894 2.98258 17.488 3.65145 18.328 4.49493C19.171 5.33512 19.8392 6.33388 20.2942 7.43361C20.7492 8.53334 20.9819 9.71227 20.979 10.9024C20.9735 15.906 16.9077 19.9664 11.9151 19.9664ZM16.8857 13.1822C16.6148 13.046 15.2769 12.3874 15.0253 12.2939C14.775 12.2045 14.5922 12.1578 14.4134 12.43C14.2305 12.7009 13.708 13.3183 13.5513 13.4957C13.3946 13.6785 13.2323 13.6992 12.9601 13.5644C12.6892 13.4269 11.8106 13.1409 10.7711 12.21C9.95981 11.4882 9.41669 10.5944 9.25444 10.3235C9.09769 10.0513 9.23931 9.90554 9.37544 9.76941C9.49506 9.64841 9.64631 9.45041 9.78244 9.29366C9.91994 9.13691 9.96531 9.02141 10.0547 8.83992C10.1441 8.65567 10.1014 8.49892 10.0341 8.36279C9.96531 8.22667 9.42219 6.8833 9.19256 6.34155C8.97256 5.80667 8.74844 5.88092 8.58069 5.87405C8.42394 5.86442 8.24107 5.86442 8.05819 5.86442C7.92009 5.86786 7.78419 5.8998 7.65902 5.95824C7.53385 6.01669 7.42211 6.10037 7.33082 6.20405C7.08057 6.4763 6.3807 7.13492 6.3807 8.47829C6.3807 9.82166 7.35694 11.1128 7.49444 11.2957C7.62919 11.4785 9.41119 14.2271 12.1461 15.4096C12.7923 15.6915 13.3011 15.8579 13.6984 15.9844C14.3515 16.1934 14.9414 16.1618 15.4117 16.0944C15.9342 16.0146 17.0218 15.4344 17.2514 14.7978C17.4769 14.1598 17.4769 13.6153 17.4082 13.5012C17.3408 13.3857 17.1579 13.3183 16.8857 13.1822Z" fill="white"/>
</svg>
