<svg width="32" height="22" viewBox="0 0 32 22" fill="none" xmlns="http://www.w3.org/2000/svg">
<path d="M31.1597 10.9052C31.1597 10.8307 31.1597 10.7461 31.1563 10.6479C31.1529 10.3737 31.1462 10.0656 31.1394 9.73715C31.1123 8.79255 31.0649 7.85134 30.9904 6.9643C30.8889 5.74207 30.7399 4.72299 30.5367 3.95783C30.3224 3.15932 29.9022 2.43107 29.3181 1.84585C28.7341 1.26063 28.0067 0.838952 27.2086 0.622961C26.2505 0.365651 24.3748 0.206525 21.734 0.108341C20.478 0.0609417 19.1339 0.0304707 17.7897 0.0135424C17.3191 0.00677111 16.8824 0.00338566 16.4897 0H15.4943C15.1015 0.00338566 14.6648 0.00677111 14.1942 0.0135424C12.8501 0.0304707 11.506 0.0609417 10.2499 0.108341C7.60908 0.209911 5.73004 0.369036 4.77528 0.622961C3.97695 0.838422 3.24926 1.25992 2.66515 1.84522C2.08104 2.43052 1.66102 3.15906 1.44718 3.95783C1.24065 4.72299 1.09507 5.74207 0.993502 6.9643C0.919017 7.85134 0.871618 8.79255 0.844533 9.73715C0.834376 10.0656 0.83099 10.3737 0.827604 10.6479C0.827604 10.7461 0.824219 10.8307 0.824219 10.9052V11.0948C0.824219 11.1693 0.824219 11.2539 0.827604 11.3521C0.83099 11.6263 0.837761 11.9344 0.844533 12.2628C0.871618 13.2074 0.919017 14.1487 0.993502 15.0357C1.09507 16.2579 1.24404 17.277 1.44718 18.0422C1.88054 19.6639 3.15355 20.9437 4.77528 21.377C5.73004 21.6343 7.60908 21.7935 10.2499 21.8917C11.506 21.9391 12.8501 21.9695 14.1942 21.9865C14.6648 21.9932 15.1015 21.9966 15.4943 22H16.4897C16.8824 21.9966 17.3191 21.9932 17.7897 21.9865C19.1339 21.9695 20.478 21.9391 21.734 21.8917C24.3748 21.7901 26.2539 21.631 27.2086 21.377C28.8304 20.9437 30.1034 19.6673 30.5367 18.0422C30.7433 17.277 30.8889 16.2579 30.9904 15.0357C31.0649 14.1487 31.1123 13.2074 31.1394 12.2628C31.1495 11.9344 31.1529 11.6263 31.1563 11.3521C31.1563 11.2539 31.1597 11.1693 31.1597 11.0948V10.9052ZM28.722 11.0813C28.722 11.1524 28.722 11.2302 28.7186 11.3216C28.7153 11.5857 28.7085 11.8769 28.7017 12.1917C28.678 13.0923 28.6306 13.9929 28.5595 14.8292C28.4681 15.9194 28.3395 16.8132 28.1803 17.4124C27.9704 18.1945 27.3542 18.8141 26.5755 19.0206C25.8645 19.2102 24.0735 19.3626 21.6392 19.454C20.4069 19.5014 19.0797 19.5319 17.7559 19.5488C17.2921 19.5556 16.8621 19.5589 16.4761 19.5589H15.5078L14.228 19.5488C12.9042 19.5319 11.5805 19.5014 10.3447 19.454C7.9104 19.3592 6.116 19.2102 5.4084 19.0206C4.6297 18.8107 4.01351 18.1945 3.8036 17.4124C3.64447 16.8132 3.51582 15.9194 3.4244 14.8292C3.3533 13.9929 3.30929 13.0923 3.28221 12.1917C3.27205 11.8769 3.26866 11.5823 3.26528 11.3216C3.26528 11.2302 3.26189 11.149 3.26189 11.0813V10.9187C3.26189 10.8476 3.26189 10.7698 3.26528 10.6784C3.26866 10.4143 3.27543 10.1231 3.28221 9.80825C3.30591 8.90766 3.3533 8.00708 3.4244 7.17082C3.51582 6.08064 3.64447 5.18683 3.8036 4.58756C4.01351 3.80548 4.6297 3.1859 5.4084 2.97938C6.11939 2.78978 7.9104 2.63743 10.3447 2.54601C11.5771 2.49861 12.9042 2.46814 14.228 2.45122C14.6919 2.44444 15.1218 2.44106 15.5078 2.44106H16.4761L17.7559 2.45122C19.0797 2.46814 20.4035 2.49861 21.6392 2.54601C24.0735 2.64081 25.8679 2.78978 26.5755 2.97938C27.3542 3.18929 27.9704 3.80548 28.1803 4.58756C28.3395 5.18683 28.4681 6.08064 28.5595 7.17082C28.6306 8.00708 28.6746 8.90766 28.7017 9.80825C28.7119 10.1231 28.7153 10.4177 28.7186 10.6784C28.7186 10.7698 28.722 10.851 28.722 10.9187V11.0813ZM12.9787 15.5368L20.8335 10.9661L12.9787 6.46322V15.5368Z" fill="white"/>
</svg>
